<?xml version="1.0" encoding="UTF-8" standalone="no" ?>
<!DOCTYPE svg PUBLIC "-//W3C//DTD SVG 1.1//EN" "http://www.w3.org/Graphics/SVG/1.1/DTD/svg11.dtd">
<svg xmlns="http://www.w3.org/2000/svg" xmlns:xlink="http://www.w3.org/1999/xlink" version="1.1" width="1080" height="1080" viewBox="0 0 1080 1080" xml:space="preserve">
<desc>Created with Fabric.js 5.2.4</desc>
<defs>
</defs>
<g transform="matrix(1 0 0 1 540 540)" id="d16e9efa-523a-4c6d-94dd-3d6e15dfb693"  >
</g>
<g transform="matrix(1 0 0 1 540 540)" id="e683d34a-e77a-473d-b698-1924164bf919"  >
<rect style="stroke: none; stroke-width: 1; stroke-dasharray: none; stroke-linecap: butt; stroke-dashoffset: 0; stroke-linejoin: miter; stroke-miterlimit: 4; fill: rgb(255,255,255); fill-rule: nonzero; opacity: 1; visibility: hidden;" vector-effect="non-scaling-stroke"  x="-540" y="-540" rx="0" ry="0" width="1080" height="1080" />
</g>
<g transform="matrix(8.68 0 0 8.68 540 540)"  >
<path style="stroke: rgb(0,0,0); stroke-width: 0; stroke-dasharray: none; stroke-linecap: butt; stroke-dashoffset: 0; stroke-linejoin: miter; stroke-miterlimit: 4; fill: rgb(255,255,255); fill-rule: nonzero; opacity: 1;" vector-effect="non-scaling-stroke"  transform=" translate(-61.46, -61.46)" d="M 61.44 0 C 90.76279790679843 -0.008381769145728952 116.00758456322319 20.699062238453205 121.7341433305883 49.457244935225106 C 127.46070209795339 78.215427631997 112.07390012957553 107.0137577197325 84.98461338181191 118.23860029477268 C 57.89532663404829 129.46344286981287 26.649275467062395 119.9881182249077 10.357169972711887 95.607924503406 C -5.9349355216386215 71.2277307819043 -2.734929636617238 38.7337705278497 18 17.999999999999986 C 29.505954743278654 6.455697349576711 45.14100023777935 -0.022912661956723923 61.44 0 Z M 32.22 79.39 L 52.1 59.46 L 32.22 43.25 L 32.22 79.39 Z M 54.29 61.24 L 33.79 81.79 L 88.91 81.79 L 69.33 61.24 L 62.87 66.75 L 62.87 66.75 C 62.34663017372453 67.17885011010709 61.59336982627547 67.17885011010709 61.07 66.75 L 54.29 61.22 Z M 71.47 59.42 L 90.66 79.55 L 90.66 43.07 L 71.47 59.42 Z M 34 41.09 L 61.9 63.85000000000001 L 88.65 41.09 Z M 99.4 23.450000000000003 C 81.2763116153069 5.331822928571672 52.878328246248664 2.5381173686618013 31.571429476294597 16.777235524784437 C 10.264530706340537 31.016353680907073 1.982222022178945 58.32301244841358 11.789138903688297 81.99917772778808 C 21.59605578519765 105.67534300716258 46.76118628398547 119.12772038678423 71.89604179859931 114.1301750576674 C 97.03089731321316 109.13262972855057 115.1359700920422 87.07686880633162 115.14 61.44999999999999 C 115.15989514673873 47.19330773534238 109.49501959494941 33.516988105863675 99.40000000000003 23.450000000000017 Z" stroke-linecap="round" />
</g>
</svg>